<mxfile host="app.diagrams.net" modified="2022-09-13T07:53:44.125Z" agent="5.0 (Windows NT 10.0; Win64; x64) AppleWebKit/537.36 (KHTML, like Gecko) Chrome/104.0.0.0 Safari/537.36" etag="CockduWESqkUeRzpXOOu" version="20.3.0" type="github">
  <diagram id="c7D5ZXQ8_ky1I9ruI8E0" name="第 1 页">
    <mxGraphModel dx="1360" dy="802" grid="1" gridSize="10" guides="1" tooltips="1" connect="1" arrows="1" fold="1" page="1" pageScale="1" pageWidth="827" pageHeight="1169" math="0" shadow="0">
      <root>
        <mxCell id="0" />
        <mxCell id="1" parent="0" />
        <mxCell id="wgqLtqWt1lxk5aU_grsr-3" style="edgeStyle=orthogonalEdgeStyle;rounded=0;orthogonalLoop=1;jettySize=auto;html=1;exitX=0.5;exitY=1;exitDx=0;exitDy=0;entryX=0.5;entryY=0;entryDx=0;entryDy=0;" edge="1" parent="1" source="wgqLtqWt1lxk5aU_grsr-1" target="wgqLtqWt1lxk5aU_grsr-2">
          <mxGeometry relative="1" as="geometry" />
        </mxCell>
        <mxCell id="wgqLtqWt1lxk5aU_grsr-1" value="java -javaagent&amp;nbsp; agent.jar" style="rounded=1;whiteSpace=wrap;html=1;" vertex="1" parent="1">
          <mxGeometry x="294" y="190" width="236" height="60" as="geometry" />
        </mxCell>
        <mxCell id="wgqLtqWt1lxk5aU_grsr-2" value="create_vm_init_agents" style="rounded=1;whiteSpace=wrap;html=1;fontStyle=1" vertex="1" parent="1">
          <mxGeometry x="294" y="300" width="236" height="60" as="geometry" />
        </mxCell>
        <mxCell id="wgqLtqWt1lxk5aU_grsr-4" value="Agent_OnLoad" style="rounded=1;whiteSpace=wrap;html=1;fontStyle=1" vertex="1" parent="1">
          <mxGeometry x="294" y="400" width="236" height="60" as="geometry" />
        </mxCell>
      </root>
    </mxGraphModel>
  </diagram>
</mxfile>
